<svg xmlns="http://www.w3.org/2000/svg" width="1920" height="1080"><path d="M269,-474L760,-468L1690,-497Z" fill="#e4b937" stroke="#e4b937" stroke-width="1.51"/><path d="M1690,-497L2010,-329L2333,-312Z" fill="#ecc947" stroke="#ecc947" stroke-width="1.51"/><path d="M478,1511L221,1523L2377,1495Z" fill="#f6df5d" stroke="#f6df5d" stroke-width="1.51"/><path d="M860,1490L478,1511L2377,1495Z" fill="#f7e160" stroke="#f7e160" stroke-width="1.51"/><path d="M1476,1442L860,1490L2377,1495Z" fill="#f9e563" stroke="#f9e563" stroke-width="1.51"/><path d="M2134,1368L1728,1405L2377,1495Z" fill="#fbea68" stroke="#fbea68" stroke-width="1.51"/><path d="M1728,1405L1476,1442L2377,1495Z" fill="#fae866" stroke="#fae866" stroke-width="1.51"/><path d="M1966,1092L2134,1368L2424,1268Z" fill="#fae867" stroke="#fae867" stroke-width="1.51"/><path d="M2122,877L1966,1092L2424,1268Z" fill="#f9e564" stroke="#f9e564" stroke-width="1.51"/><path d="M2268,799L2122,877L2424,1268Z" fill="#f9e563" stroke="#f9e563" stroke-width="1.51"/><path d="M2350,646L2268,799L2424,1268Z" fill="#f9e463" stroke="#f9e463" stroke-width="1.51"/><path d="M2134,1368L2377,1495L2424,1268Z" fill="#fced6a" stroke="#fced6a" stroke-width="1.51"/><path d="M2103,-1L1940,326L2439,305Z" fill="#f2d554" stroke="#f2d554" stroke-width="1.51"/><path d="M1940,326L2023,514L2439,305Z" fill="#f3d857" stroke="#f3d857" stroke-width="1.51"/><path d="M2023,514L2350,646L2439,305Z" fill="#f5dc5a" stroke="#f5dc5a" stroke-width="1.51"/><path d="M2296,-183L2103,-1L2439,305Z" fill="#f1d452" stroke="#f1d452" stroke-width="1.51"/><path d="M2333,-312L2296,-183L2439,305Z" fill="#f1d351" stroke="#f1d351" stroke-width="1.51"/><path d="M2350,646L2424,1268L2439,305Z" fill="#f8e260" stroke="#f8e260" stroke-width="1.51"/><path d="M2023,514L2268,799L2350,646Z" fill="#f6de5d" stroke="#f6de5d" stroke-width="1.51"/><path d="M2010,-329L2296,-183L2333,-312Z" fill="#eecd4c" stroke="#eecd4c" stroke-width="1.51"/><path d="M2023,514L2122,877L2268,799Z" fill="#f6de5d" stroke="#f6de5d" stroke-width="1.51"/><path d="M2010,-329L2103,-1L2296,-183Z" fill="#efce4d" stroke="#efce4d" stroke-width="1.51"/><path d="M2010,-329L1733,16L2103,-1Z" fill="#eecd4c" stroke="#eecd4c" stroke-width="1.51"/><path d="M1733,16L1940,326L2103,-1Z" fill="#f0d14f" stroke="#f0d14f" stroke-width="1.51"/><path d="M2023,514L1755,782L2122,877Z" fill="#f5dc5b" stroke="#f5dc5b" stroke-width="1.51"/><path d="M1966,1092L1728,1405L2134,1368Z" fill="#fae664" stroke="#fae664" stroke-width="1.51"/><path d="M1755,782L1966,1092L2122,877Z" fill="#f7df5e" stroke="#f7df5e" stroke-width="1.51"/><path d="M1772,538L1755,782L2023,514Z" fill="#f4d957" stroke="#f4d957" stroke-width="1.51"/><path d="M1733,16L1754,330L1940,326Z" fill="#f0d150" stroke="#f0d150" stroke-width="1.51"/><path d="M1690,-497L1733,16L2010,-329Z" fill="#ebc847" stroke="#ebc847" stroke-width="1.51"/><path d="M1940,326L1772,538L2023,514Z" fill="#f2d655" stroke="#f2d655" stroke-width="1.51"/><path d="M1628,1266L1728,1405L1966,1092Z" fill="#f8e362" stroke="#f8e362" stroke-width="1.51"/><path d="M1690,-497L1481,-301L1733,16Z" fill="#eac644" stroke="#eac644" stroke-width="1.51"/><path d="M1754,330L1772,538L1940,326Z" fill="#f1d453" stroke="#f1d453" stroke-width="1.51"/><path d="M1755,782L1628,1266L1966,1092Z" fill="#f7e05e" stroke="#f7e05e" stroke-width="1.51"/><path d="M1045,1400L860,1490L1476,1442Z" fill="#f6de5d" stroke="#f6de5d" stroke-width="1.51"/><path d="M1433,931L1431,1120L1628,1266Z" fill="#f6dd5c" stroke="#f6dd5c" stroke-width="1.51"/><path d="M760,-468L1006,-307L1690,-497Z" fill="#e6bd3b" stroke="#e6bd3b" stroke-width="1.51"/><path d="M1407,24L1363,253L1733,16Z" fill="#edcb49" stroke="#edcb49" stroke-width="1.51"/><path d="M1481,-301L1407,24L1733,16Z" fill="#ebc846" stroke="#ebc846" stroke-width="1.51"/><path d="M1733,16L1363,253L1754,330Z" fill="#efce4d" stroke="#efce4d" stroke-width="1.51"/><path d="M1433,931L1628,1266L1755,782Z" fill="#f5dd5b" stroke="#f5dd5b" stroke-width="1.51"/><path d="M1399,550L1755,782L1772,538Z" fill="#f2d655" stroke="#f2d655" stroke-width="1.51"/><path d="M1754,330L1399,550L1772,538Z" fill="#f1d452" stroke="#f1d452" stroke-width="1.51"/><path d="M1006,-307L1481,-301L1690,-497Z" fill="#e8c13f" stroke="#e8c13f" stroke-width="1.51"/><path d="M1363,253L1399,550L1754,330Z" fill="#f0d04f" stroke="#f0d04f" stroke-width="1.51"/><path d="M1399,550L1433,931L1755,782Z" fill="#f3d756" stroke="#f3d756" stroke-width="1.51"/><path d="M1628,1266L1476,1442L1728,1405Z" fill="#f8e462" stroke="#f8e462" stroke-width="1.51"/><path d="M1431,1120L1476,1442L1628,1266Z" fill="#f7e05f" stroke="#f7e05f" stroke-width="1.51"/><path d="M1161,1057L1045,1400L1431,1120Z" fill="#f4db5a" stroke="#f4db5a" stroke-width="1.51"/><path d="M1399,550L1178,949L1433,931Z" fill="#f2d654" stroke="#f2d654" stroke-width="1.51"/><path d="M1431,1120L1045,1400L1476,1442Z" fill="#f6df5d" stroke="#f6df5d" stroke-width="1.51"/><path d="M1040,-107L1407,24L1481,-301Z" fill="#eac443" stroke="#eac443" stroke-width="1.51"/><path d="M1006,-307L1040,-107L1481,-301Z" fill="#e8c13f" stroke="#e8c13f" stroke-width="1.51"/><path d="M1012,529L1178,949L1399,550Z" fill="#f0d251" stroke="#f0d251" stroke-width="1.51"/><path d="M1363,253L1087,297L1399,550Z" fill="#eecd4c" stroke="#eecd4c" stroke-width="1.51"/><path d="M1178,949L1161,1057L1431,1120Z" fill="#f4d958" stroke="#f4d958" stroke-width="1.51"/><path d="M1178,949L1431,1120L1433,931Z" fill="#f4d958" stroke="#f4d958" stroke-width="1.51"/><path d="M1087,297L1012,529L1399,550Z" fill="#eecd4c" stroke="#eecd4c" stroke-width="1.51"/><path d="M1087,297L1363,253L1407,24Z" fill="#ecc949" stroke="#ecc949" stroke-width="1.51"/><path d="M1040,-107L1087,297L1407,24Z" fill="#ebc645" stroke="#ebc645" stroke-width="1.51"/><path d="M1040,-107L838,210L1087,297Z" fill="#eac544" stroke="#eac544" stroke-width="1.51"/><path d="M888,1212L1045,1400L1161,1057Z" fill="#f4d958" stroke="#f4d958" stroke-width="1.51"/><path d="M889,866L1161,1057L1178,949Z" fill="#f2d554" stroke="#f2d554" stroke-width="1.51"/><path d="M1012,529L889,866L1178,949Z" fill="#f0d150" stroke="#f0d150" stroke-width="1.51"/><path d="M269,-474L403,-434L760,-468Z" fill="#e2b432" stroke="#e2b432" stroke-width="1.51"/><path d="M880,-94L838,210L1040,-107Z" fill="#e9c241" stroke="#e9c241" stroke-width="1.51"/><path d="M889,866L888,1212L1161,1057Z" fill="#f2d654" stroke="#f2d654" stroke-width="1.51"/><path d="M774,441L1012,529L1087,297Z" fill="#ecca49" stroke="#ecca49" stroke-width="1.51"/><path d="M838,210L774,441L1087,297Z" fill="#ecc746" stroke="#ecc746" stroke-width="1.51"/><path d="M774,441L889,866L1012,529Z" fill="#eecc4b" stroke="#eecc4b" stroke-width="1.51"/><path d="M1006,-307L880,-94L1040,-107Z" fill="#e8bf3e" stroke="#e8bf3e" stroke-width="1.51"/><path d="M888,1212L860,1490L1045,1400Z" fill="#f4da59" stroke="#f4da59" stroke-width="1.51"/><path d="M-227,1467L-433,1499L221,1523Z" fill="#efcf4d" stroke="#efcf4d" stroke-width="1.51"/><path d="M760,-468L880,-94L1006,-307Z" fill="#e6bc3a" stroke="#e6bc3a" stroke-width="1.51"/><path d="M446,-130L838,210L880,-94Z" fill="#e8bf3e" stroke="#e8bf3e" stroke-width="1.51"/><path d="M760,-468L446,-130L880,-94Z" fill="#e5ba39" stroke="#e5ba39" stroke-width="1.51"/><path d="M546,1223L860,1490L888,1212Z" fill="#f3d756" stroke="#f3d756" stroke-width="1.51"/><path d="M774,441L484,522L889,866Z" fill="#edca49" stroke="#edca49" stroke-width="1.51"/><path d="M484,522L420,896L889,866Z" fill="#edcb4a" stroke="#edcb4a" stroke-width="1.51"/><path d="M546,1223L888,1212L889,866Z" fill="#f1d453" stroke="#f1d453" stroke-width="1.51"/><path d="M420,896L546,1223L889,866Z" fill="#efd04f" stroke="#efd04f" stroke-width="1.51"/><path d="M446,-130L408,241L838,210Z" fill="#e8bf3e" stroke="#e8bf3e" stroke-width="1.51"/><path d="M546,1223L478,1511L860,1490Z" fill="#f3d856" stroke="#f3d856" stroke-width="1.51"/><path d="M408,241L774,441L838,210Z" fill="#eac442" stroke="#eac442" stroke-width="1.51"/><path d="M403,-434L446,-130L760,-468Z" fill="#e3b635" stroke="#e3b635" stroke-width="1.51"/><path d="M408,241L484,522L774,441Z" fill="#eac443" stroke="#eac443" stroke-width="1.51"/><path d="M262,498L420,896L484,522Z" fill="#ebc745" stroke="#ebc745" stroke-width="1.51"/><path d="M287,1184L478,1511L546,1223Z" fill="#f1d352" stroke="#f1d352" stroke-width="1.51"/><path d="M420,896L287,1184L546,1223Z" fill="#efcf4e" stroke="#efcf4e" stroke-width="1.51"/><path d="M262,498L78,778L420,896Z" fill="#ebc645" stroke="#ebc645" stroke-width="1.51"/><path d="M403,-434L269,-474L446,-130Z" fill="#e2b433" stroke="#e2b433" stroke-width="1.51"/><path d="M124,-26L408,241L446,-130Z" fill="#e6bb39" stroke="#e6bb39" stroke-width="1.51"/><path d="M287,1184L221,1523L478,1511Z" fill="#f1d452" stroke="#f1d452" stroke-width="1.51"/><path d="M408,241L262,498L484,522Z" fill="#e9c241" stroke="#e9c241" stroke-width="1.51"/><path d="M124,-26L138,255L408,241Z" fill="#e6bb3b" stroke="#e6bb3b" stroke-width="1.51"/><path d="M269,-474L124,-26L446,-130Z" fill="#e3b634" stroke="#e3b634" stroke-width="1.51"/><path d="M-17,-175L124,-26L269,-474Z" fill="#e2b332" stroke="#e2b332" stroke-width="1.51"/><path d="M138,255L262,498L408,241Z" fill="#e8bf3e" stroke="#e8bf3e" stroke-width="1.51"/><path d="M78,778L287,1184L420,896Z" fill="#edca49" stroke="#edca49" stroke-width="1.51"/><path d="M-343,-346L-65,-287L269,-474Z" fill="#dfaf2c" stroke="#dfaf2c" stroke-width="1.51"/><path d="M-65,-287L-17,-175L269,-474Z" fill="#e0b12f" stroke="#e0b12f" stroke-width="1.51"/><path d="M78,778L-81,879L287,1184Z" fill="#ecc847" stroke="#ecc847" stroke-width="1.51"/><path d="M-186,1190L221,1523L287,1184Z" fill="#efcf4e" stroke="#efcf4e" stroke-width="1.51"/><path d="M-81,879L-186,1190L287,1184Z" fill="#edca49" stroke="#edca49" stroke-width="1.51"/><path d="M-186,1190L-227,1467L221,1523Z" fill="#efce4d" stroke="#efce4d" stroke-width="1.51"/><path d="M-117,643L78,778L262,498Z" fill="#e9c341" stroke="#e9c341" stroke-width="1.51"/><path d="M138,255L-63,304L262,498Z" fill="#e7be3d" stroke="#e7be3d" stroke-width="1.51"/><path d="M-63,304L-117,643L262,498Z" fill="#e7bf3e" stroke="#e7bf3e" stroke-width="1.51"/><path d="M-17,-175L-63,304L124,-26Z" fill="#e4b735" stroke="#e4b735" stroke-width="1.51"/><path d="M124,-26L-63,304L138,255Z" fill="#e5ba38" stroke="#e5ba38" stroke-width="1.51"/><path d="M-385,-47L-63,304L-17,-175Z" fill="#e3b433" stroke="#e3b433" stroke-width="1.51"/><path d="M-117,643L-81,879L78,778Z" fill="#e9c342" stroke="#e9c342" stroke-width="1.51"/><path d="M-427,558L-117,643L-63,304Z" fill="#e6bd3b" stroke="#e6bd3b" stroke-width="1.51"/><path d="M-385,-47L-426,149L-63,304Z" fill="#e2b433" stroke="#e2b433" stroke-width="1.51"/><path d="M-65,-287L-385,-47L-17,-175Z" fill="#e1b12f" stroke="#e1b12f" stroke-width="1.51"/><path d="M-417,1153L-186,1190L-81,879Z" fill="#ebc745" stroke="#ebc745" stroke-width="1.51"/><path d="M-117,643L-474,759L-81,879Z" fill="#e8c140" stroke="#e8c140" stroke-width="1.51"/><path d="M-343,-346L-385,-47L-65,-287Z" fill="#dfae2c" stroke="#dfae2c" stroke-width="1.51"/><path d="M-426,149L-427,558L-63,304Z" fill="#e4b836" stroke="#e4b836" stroke-width="1.51"/><path d="M-474,759L-417,1153L-81,879Z" fill="#e9c342" stroke="#e9c342" stroke-width="1.51"/><path d="M-427,558L-474,759L-117,643Z" fill="#e6bd3c" stroke="#e6bd3c" stroke-width="1.51"/><path d="M-417,1153L-433,1499L-227,1467Z" fill="#edcb49" stroke="#edcb49" stroke-width="1.51"/><path d="M-417,1153L-227,1467L-186,1190Z" fill="#ecca49" stroke="#ecca49" stroke-width="1.51"/><path d="M-426,149L-385,-47L-343,-346Z" fill="#e0b02d" stroke="#e0b02d" stroke-width="1.51"/><path d="M-474,759L-427,558L-426,149Z" fill="#e5b938" stroke="#e5b938" stroke-width="1.51"/><path d="M-474,759L-433,1499L-417,1153Z" fill="#eac544" stroke="#eac544" stroke-width="1.51"/></svg>